<svg xmlns="http://www.w3.org/2000/svg" version="1.1" viewBox="-5.0 -10.0 110.0 135.0">
 <path d="m68.48 9.0703c-14.648-5.4375-38.672-5.4375-53.316 0-13.531 5.0234-13.531 11.988 0 17.012 14.648 5.4375 38.672 5.4375 53.316 0 13.531-5.0234 13.531-11.988 0-17.012zm10.164 15.203v14.914c0 3.1562-3.8828 6.1758-10.164 8.5039-14.648 5.4375-38.668 5.4375-53.316 0-6.2812-2.3281-10.164-5.3477-10.164-8.5039v-14.914c13.746 12.43 59.898 12.43 73.645 0zm10.84 38.574c-11.836-11.832-32.145-3.4062-32.145 13.316 0 16.723 20.312 25.148 32.145 13.316 7.3555-7.3555 7.3555-19.281 0-26.633zm-35.605 13.293c-0.074218 6.5859 2.9766 12.746 7.6289 16.816-14.383 3.2578-33.738 2.6406-46.344-2.0391-6.2812-2.332-10.164-5.3516-10.164-8.5078v-14.914c9.7891 8.8555 33.797 10.449 48.879 8.6445zm24.766-22.133v-8.1211c-13.742 12.43-59.898 12.43-73.645 0v14.914c0 3.1562 3.8828 6.1758 10.164 8.5039 10.68 3.9648 26.098 4.9688 38.992 3.3203 1.8555-11.637 12.562-19.934 24.488-18.617zm9.2969 15.836-15.082 15.086c-0.67578 0.67578-1.7734 0.67578-2.4453 0l-6.0117-6.0117 2.4453-2.4453 4.7891 4.7891 13.859-13.859z" fill-rule="evenodd"/>
<text x="0.0" y="117.5" font-size="5.0" font-weight="bold" font-family="Arbeit Regular, Helvetica, Arial-Unicode, Arial, Sans-serif" fill="#000000">Created by Dwi Budiyanto</text><text x="0.0" y="122.5" font-size="5.0" font-weight="bold" font-family="Arbeit Regular, Helvetica, Arial-Unicode, Arial, Sans-serif" fill="#000000">from Noun Project</text></svg>