<svg xmlns="http://www.w3.org/2000/svg" version="1.1" viewBox="-5.0 -10.0 110.0 135.0">
 <path d="m50 6.25c-11.602 0-22.73 4.6094-30.938 12.812-8.2031 8.207-12.812 19.336-12.812 30.938s4.6094 22.73 12.812 30.938c8.207 8.2031 19.336 12.812 30.938 12.812s22.73-4.6094 30.938-12.812c8.2031-8.207 12.812-19.336 12.812-30.938-0.011719-11.598-4.625-22.719-12.828-30.922s-19.324-12.816-30.922-12.828zm0 81.25c-9.9453 0-19.484-3.9492-26.516-10.984-7.0352-7.0312-10.984-16.57-10.984-26.516s3.9492-19.484 10.984-26.516c7.0312-7.0352 16.57-10.984 26.516-10.984s19.484 3.9492 26.516 10.984c7.0352 7.0312 10.984 16.57 10.984 26.516-0.011719 9.9414-3.9648 19.473-10.996 26.504s-16.562 10.984-26.504 10.996zm3.125-65.625v25.535c0.007812 2.4883-0.98438 4.875-2.7461 6.6289l-13.793 13.793v0.003907c-1.2266 1.1836-3.1758 1.1641-4.3828-0.039063-1.2031-1.207-1.2227-3.1562-0.039063-4.3828l13.793-13.793h0.003907c0.58594-0.58594 0.91406-1.3828 0.91406-2.2109v-25.535c0-1.7266 1.3984-3.125 3.125-3.125s3.125 1.3984 3.125 3.125z"/>
<text x="0.0" y="117.5" font-size="5.0" font-weight="bold" font-family="Arbeit Regular, Helvetica, Arial-Unicode, Arial, Sans-serif" fill="#000000">Created by Hayva Zoeya</text><text x="0.0" y="122.5" font-size="5.0" font-weight="bold" font-family="Arbeit Regular, Helvetica, Arial-Unicode, Arial, Sans-serif" fill="#000000">from Noun Project</text></svg>