<svg xmlns="http://www.w3.org/2000/svg" xmlns:xlink="http://www.w3.org/1999/xlink" version="1.1" x="0px" y="0px" viewBox="0 0 100 125" style="enable-background:new 0 0 100 100;" xml:space="preserve"><style type="text/css">
	.st0{fill-rule:evenodd;clip-rule:evenodd;}
</style><path d="M30.56,67.38c0,3.56,8.7,6.44,19.44,6.44c10.74,0,19.44-2.88,19.44-6.44v-8.03c-1.45,1.01-3.17,1.74-4.69,2.24  c-4.58,1.52-9.94,2.05-14.75,2.05c-4.8,0-10.17-0.53-14.74-2.05c-1.52-0.5-3.24-1.23-4.69-2.24V67.38z M53.29,66.94  c2.31-0.14,4.49-0.41,6.45-0.81c1.96-0.39,3.67-0.9,5.03-1.48c0.81-0.35,1.74,0.03,2.09,0.84c0.35,0.81-0.03,1.74-0.84,2.09  c-1.57,0.67-3.49,1.24-5.65,1.68c-2.07,0.42-4.4,0.71-6.9,0.86c-0.88,0.05-1.63-0.62-1.68-1.5C51.73,67.75,52.41,66.99,53.29,66.94z   M39.99,67.75c0.14-0.87,0.95-1.46,1.82-1.32c0.09,0.01,0.28,0.04,0.6,0.09c0.33,0.05,0.53,0.08,0.62,0.09  c0.87,0.12,1.49,0.92,1.37,1.79c-0.12,0.87-0.91,1.49-1.78,1.37c-0.35-0.04-0.56-0.08-0.66-0.09c-0.11-0.02-0.33-0.05-0.65-0.1  C40.44,69.43,39.85,68.61,39.99,67.75z M33.14,65.5c0.35-0.81,1.28-1.19,2.09-0.84c0.21,0.09,0.39,0.16,0.56,0.23  c0.19,0.08,0.39,0.15,0.6,0.22c0.83,0.29,1.27,1.19,0.98,2.02c-0.29,0.83-1.19,1.27-2.03,0.98c-0.23-0.08-0.47-0.17-0.7-0.26  c-0.25-0.1-0.47-0.19-0.66-0.27C33.18,67.25,32.8,66.31,33.14,65.5z M30.56,54.01c0-0.71,0.35-1.4,1-2.04  c1.21,0.7,2.51,1.22,3.69,1.61c4.58,1.52,9.94,2.05,14.74,2.05c4.81,0,10.17-0.53,14.75-2.05c1.18-0.39,2.49-0.92,3.69-1.61  c0.65,0.64,1,1.33,1,2.04c0,3.55-8.7,6.43-19.44,6.43C39.27,60.44,30.56,57.56,30.56,54.01z M30.56,45.99  c0,3.56,8.7,6.44,19.44,6.44c10.74,0,19.44-2.88,19.44-6.44v-8.03c-1.45,1.02-3.17,1.74-4.69,2.25c-4.58,1.51-9.94,2.04-14.75,2.04  c-4.8,0-10.17-0.53-14.74-2.04c-1.52-0.5-3.24-1.23-4.69-2.25V45.99z M53.29,45.56c2.31-0.13,4.49-0.41,6.45-0.8  c1.96-0.39,3.67-0.9,5.03-1.49c0.81-0.34,1.74,0.03,2.09,0.84s-0.03,1.74-0.84,2.09c-1.57,0.68-3.49,1.25-5.65,1.68  c-2.07,0.41-4.4,0.71-6.9,0.86c-0.88,0.05-1.63-0.62-1.68-1.51C51.73,46.36,52.41,45.61,53.29,45.56z M39.99,46.36  c0.14-0.87,0.95-1.46,1.82-1.33c0.09,0.02,0.28,0.04,0.6,0.09c0.33,0.04,0.53,0.08,0.62,0.09c0.87,0.11,1.49,0.91,1.37,1.78  c-0.12,0.87-0.91,1.49-1.78,1.38c-0.35-0.05-0.56-0.08-0.66-0.09c-0.11-0.01-0.33-0.05-0.65-0.1  C40.44,48.05,39.85,47.23,39.99,46.36z M33.14,44.12c0.35-0.81,1.28-1.18,2.09-0.84c0.21,0.09,0.39,0.17,0.56,0.24  c0.19,0.07,0.39,0.15,0.6,0.22c0.83,0.29,1.27,1.19,0.98,2.03c-0.29,0.83-1.19,1.27-2.03,0.98c-0.23-0.09-0.47-0.17-0.7-0.26  c-0.25-0.1-0.47-0.19-0.66-0.27C33.18,45.86,32.8,44.93,33.14,44.12z M50,39.06c-10.73,0-19.44-2.88-19.44-6.44  c0-3.56,8.7-6.43,19.44-6.43c10.74,0,19.44,2.88,19.44,6.43C69.43,36.18,60.73,39.06,50,39.06z M83.39,76.93  c0.03,0.24-0.04,0.45-0.2,0.65c-3.94,4.74-8.87,8.62-14.48,11.32c-5.68,2.74-12.03,4.27-18.72,4.27c-11.92,0-22.71-4.83-30.52-12.64  C11.85,72.9,7.06,62.43,6.84,50.85C6.83,50.38,6.44,50,5.97,50h-4.6c-0.36,0-0.67-0.21-0.81-0.54c-0.14-0.33-0.07-0.7,0.19-0.95  l8.95-8.94c0.33-0.34,0.89-0.34,1.23,0l8.95,8.94c0.25,0.26,0.32,0.62,0.19,0.95C19.92,49.79,19.62,50,19.25,50h-4.58  c-0.25,0-0.45,0.09-0.62,0.26c-0.17,0.18-0.25,0.39-0.25,0.63c0.23,9.65,4.24,18.36,10.59,24.71C30.95,82.15,40,86.21,50,86.21  c5.64,0,10.96-1.28,15.7-3.56c4.68-2.25,8.79-5.48,12.09-9.42c0.3-0.36,0.84-0.42,1.21-0.13l4.08,3.24  C83.26,76.49,83.37,76.69,83.39,76.93z M99.24,51.49l-8.94,8.94c-0.34,0.34-0.89,0.34-1.23,0l-8.94-8.94  c-0.25-0.26-0.33-0.62-0.19-0.95c0.14-0.33,0.45-0.54,0.81-0.54h4.58c0.24,0,0.45-0.09,0.62-0.26c0.17-0.18,0.25-0.39,0.25-0.63  c-0.24-9.65-4.24-18.35-10.59-24.71c-6.55-6.55-15.6-10.61-25.6-10.61c-5.63,0-10.96,1.28-15.69,3.56  c-4.68,2.25-8.8,5.48-12.09,9.42c-0.3,0.36-0.84,0.42-1.21,0.13l-4.07-3.24c-0.19-0.15-0.3-0.35-0.33-0.59  c-0.02-0.24,0.04-0.45,0.2-0.64c3.94-4.74,8.87-8.62,14.49-11.32C36.96,8.37,43.31,6.83,50,6.83c11.92,0,22.71,4.83,30.52,12.64  c7.62,7.62,12.41,18.09,12.63,29.67c0.01,0.47,0.4,0.86,0.87,0.86h4.6c0.36,0,0.67,0.2,0.81,0.54  C99.57,50.87,99.5,51.23,99.24,51.49z"/><text x="0" y="115" fill="#000000" font-size="5px" font-weight="bold" font-family="'Helvetica Neue', Helvetica, Arial-Unicode, Arial, Sans-serif">Created by Naba A'la</text><text x="0" y="120" fill="#000000" font-size="5px" font-weight="bold" font-family="'Helvetica Neue', Helvetica, Arial-Unicode, Arial, Sans-serif">from the Noun Project</text></svg>